<svg width="271" height="264" viewBox="0 0 271 264" fill="none" xmlns="http://www.w3.org/2000/svg">
<path fill-rule="evenodd" clip-rule="evenodd" d="M135.49 0.396484C60.7844 0.396484 0.394043 60.7869 0.394043 135.492C0.394043 195.211 39.0886 245.76 92.769 263.654C99.479 264.996 101.939 260.746 101.939 257.167C101.939 254.036 101.716 243.3 101.716 232.117C64.1394 240.169 56.3111 216.013 56.3111 216.013C50.272 200.356 41.3253 196.33 41.3253 196.33C29.0236 188.054 42.22 188.054 42.22 188.054C55.8637 188.949 63.0211 201.921 63.0211 201.921C75.0992 222.499 94.5583 216.684 102.387 213.105C103.505 204.382 107.084 198.343 110.886 194.988C80.9146 191.856 49.3773 180.226 49.3773 128.335C49.3773 113.573 54.7454 101.494 63.2448 92.1004C61.9028 88.7454 57.2057 74.878 64.5868 56.3135C64.5868 56.3135 75.9939 52.7348 101.716 70.1809C112.452 67.2732 124.082 65.7076 135.49 65.7076C146.897 65.7076 158.527 67.2732 169.263 70.1809C194.985 52.7348 206.392 56.3135 206.392 56.3135C213.773 74.878 209.076 88.7454 207.734 92.1004C216.457 101.494 221.602 113.573 221.602 128.335C221.602 180.226 190.065 191.633 159.869 194.988C164.79 199.237 169.04 207.289 169.04 220.039C169.04 238.156 168.816 252.694 168.816 257.167C168.816 260.746 171.276 264.996 177.986 263.654C231.667 245.76 270.361 195.211 270.361 135.492C270.585 60.7869 209.971 0.396484 135.49 0.396484Z" fill="white"/>
<path d="M51.616 194.318C51.3922 194.99 50.2731 195.213 49.3778 194.766C48.4825 194.318 47.8111 193.423 48.2587 192.751C48.4825 192.08 49.6016 191.856 50.4969 192.304C51.3922 192.751 51.8398 193.647 51.616 194.318Z" fill="white"/>
<path d="M56.9848 200.359C56.3134 201.03 54.9705 200.582 54.299 199.687C53.4037 198.792 53.1799 197.449 53.8514 196.777C54.5228 196.106 55.6419 196.554 56.5372 197.449C57.4325 198.568 57.6563 199.911 56.9848 200.359Z" fill="white"/>
<path d="M62.3531 208.187C61.4578 208.858 60.1149 208.187 59.4434 207.068C58.5482 205.949 58.5482 204.382 59.4434 203.934C60.3387 203.263 61.6816 203.934 62.3531 205.054C63.2484 206.173 63.2484 207.516 62.3531 208.187Z" fill="white"/>
<path d="M69.7347 215.792C69.0632 216.687 67.4965 216.463 66.1536 215.344C65.0345 214.225 64.5868 212.658 65.4821 211.987C66.1536 211.092 67.7203 211.316 69.0632 212.435C70.1823 213.33 70.4062 214.897 69.7347 215.792Z" fill="white"/>
<path d="M79.7999 220.041C79.5761 221.16 78.0094 221.608 76.4426 221.16C74.8759 220.712 73.9806 219.37 74.2044 218.474C74.4283 217.355 75.995 216.907 77.5617 217.355C79.1285 217.803 80.0238 218.922 79.7999 220.041Z" fill="white"/>
<path d="M90.7593 220.934C90.7593 222.053 89.4163 222.949 87.8496 222.949C86.2829 222.949 84.9399 222.053 84.9399 220.934C84.9399 219.815 86.2829 218.92 87.8496 218.92C89.4163 218.92 90.7593 219.815 90.7593 220.934Z" fill="white"/>
<path d="M101.048 219.145C101.272 220.264 100.153 221.383 98.5863 221.607C97.0196 221.831 95.6767 221.159 95.4528 220.04C95.229 218.921 96.3481 217.802 97.9148 217.578C99.4816 217.354 100.825 218.026 101.048 219.145Z" fill="white"/>
</svg>
