<svg width="210" height="304" viewBox="0 0 210 304" fill="none" xmlns="http://www.w3.org/2000/svg">
<path fill-rule="evenodd" clip-rule="evenodd" d="M104.257 164.942L98.2983 155.667C96.3793 152.648 94.3593 149.196 92.5413 145.853C89.2082 139.598 85.1682 131.725 83.3502 123.853C79.9162 109.401 88.1982 100.45 95.5713 90.9596C96.6823 89.5576 97.9953 88.1556 99.2073 86.8614C106.883 78.2337 117.488 67.8805 125.67 59.2528C134.053 50.5173 139.002 40.919 140.012 26.7912C140.517 19.4577 139.204 3.60429 134.356 0.800293C135.77 11.9084 136.174 19.3498 131.932 30.458C127.084 43.3995 119.205 51.0565 110.014 58.7136C102.439 64.9687 90.2182 76.1847 83.7542 82.7633C79.6132 86.9693 72.4421 94.6263 69.5131 101.96C65.1701 112.96 69.5131 120.078 74.1591 127.735C76.3811 131.402 78.6032 134.529 81.0272 137.765C83.7542 141.539 86.2792 144.236 88.4002 147.147C90.7233 150.275 93.5513 153.187 96.1773 156.206C97.6923 158.148 102.641 163.756 104.257 164.942Z" fill="white"/>
<path fill-rule="evenodd" clip-rule="evenodd" d="M193.123 259.847C196.052 264.916 193.123 267.073 189.184 269.014C171.307 277.965 111.01 279.583 92.1225 279.906C72.9324 280.23 53.5402 279.367 34.9561 275.916C31.9261 275.377 18.695 273.112 18.089 269.338C17.685 266.965 20.008 265.239 21.22 264.377C25.462 261.573 33.3401 259.631 38.6931 258.553C40.2081 258.229 44.0462 257.798 45.1572 257.367C36.1681 255.965 7.6859 261.141 1.42385 270.524C-2.51518 276.455 4.04987 279.259 8.49391 280.769C24.957 286.485 59.0953 287.671 77.1744 287.887C104.142 288.319 168.984 287.995 192.719 270.524C194.133 269.553 196.86 267.396 197.062 265.347C197.466 262.867 194.638 260.494 193.123 259.847Z" fill="white"/>
<path fill-rule="evenodd" clip-rule="evenodd" d="M115.438 176.697C118.266 175.619 126.75 168.285 129.073 165.805C132.103 162.461 137.153 156.422 137.557 149.304C137.961 142.833 133.82 134.529 131.295 130.431C123.316 117.49 116.852 110.048 127.76 95.5968C131.396 90.8515 135.335 87.0769 139.88 82.9788C145.435 78.1257 154.424 71.4393 160.888 67.1254L168.261 62.0566C164.322 62.5959 154.02 67.0176 149.98 68.6353C144.526 70.7922 138.264 74.1354 133.416 77.1551C117.054 87.2926 100.893 103.146 107.559 124.931C112.004 139.706 125.033 148.549 124.023 159.657C123.316 166.452 117.256 173.246 115.438 176.697Z" fill="white"/>
<path fill-rule="evenodd" clip-rule="evenodd" d="M149.609 249.064C144.559 247.015 140.822 244.642 136.277 241.838C133.651 240.22 134.661 240.328 131.328 241.191C117.693 244.75 95.5739 244.858 81.3328 244.319C77.6968 244.211 67.2937 243.887 65.1727 240.113C63.8597 237.74 65.6777 236.122 66.3847 234.72C56.9917 236.769 47.4976 245.073 60.5267 251.976C75.1718 259.741 106.078 259.848 122.137 256.829C126.682 255.966 147.488 250.897 149.609 249.064Z" fill="white"/>
<path fill-rule="evenodd" clip-rule="evenodd" d="M153.934 216.382C150.096 215.304 146.561 212.715 144.238 210.558C142.117 208.617 142.824 209.156 138.38 209.911C122.321 212.715 74.5474 217.784 60.9123 211.745C59.0943 210.99 57.0743 209.803 56.9733 207.539C56.8723 204.843 58.8923 203.441 59.8013 202.039C48.7922 203.441 38.2882 214.764 52.9333 220.265C69.4974 226.304 105.353 226.52 123.028 224.147C128.886 223.284 149.49 218.97 153.934 216.382Z" fill="white"/>
<path fill-rule="evenodd" clip-rule="evenodd" d="M165.064 177.878C162.943 177.986 160.216 178.633 158.095 179.064C155.671 179.496 153.348 179.819 150.823 180.143C136.077 182.3 119.816 184.133 105.07 184.996C93.5558 185.751 50.2264 187.261 43.7624 180.79C43.2574 177.878 46.3884 176.045 48.3074 174.966C55.7815 170.76 63.6595 169.25 70.9316 166.878C60.8315 165.907 35.3793 173.672 26.1882 179.819C16.2902 186.398 32.8543 189.094 39.0153 189.957C75.2746 195.349 109.211 192.437 145.066 187.045C150.924 186.182 152.136 186.506 156.176 183.81C159.004 181.868 162.539 179.927 165.064 177.878Z" fill="white"/>
<path fill-rule="evenodd" clip-rule="evenodd" d="M39.5903 294.578C49.6904 299.108 71.8096 301.912 83.2227 302.883C99.2818 304.285 116.957 303.961 133.117 302.775C153.923 301.157 178.668 298.677 196.95 288.755C201.293 286.382 209.171 280.666 209.878 275.274C208.565 275.921 207.454 277.215 206.242 278.078C173.921 301.804 100.09 299.539 61.9115 296.627L39.5903 294.578Z" fill="white"/>
<path fill-rule="evenodd" clip-rule="evenodd" d="M172.308 168.61C180.186 165.914 189.276 167.748 194.225 172.493C199.679 177.669 199.679 187.483 195.841 195.033C190.589 205.17 179.681 214.121 170.49 220.269C168.975 221.347 167.46 222.102 166.046 223.18C171.904 222.533 185.842 215.847 191.094 212.288C197.861 207.866 205.335 201.288 208.466 192.876C212.91 180.905 206.446 171.846 199.578 167.424C195.639 164.944 190.892 163.434 185.337 163.757C181.095 163.973 174.227 165.806 172.308 168.61Z" fill="white"/>
</svg>
