<svg width="274" height="274" viewBox="0 0 274 274" fill="none" xmlns="http://www.w3.org/2000/svg">
<path d="M0.990234 0.358398H273.691V273.06H0.990234V0.358398Z" fill="white"/>
<path d="M72.6978 228.244L93.5658 215.61C97.5924 222.747 101.257 228.787 110.034 228.787C118.46 228.787 123.765 225.495 123.765 212.68V125.544H149.395V213.043C149.395 239.588 133.832 251.668 111.132 251.668C90.6364 251.679 78.7377 241.058 72.6978 228.244Z" fill="white"/>
<path d="M163.316 225.498L184.184 213.418C189.681 222.387 196.818 228.981 209.441 228.981C220.062 228.981 226.826 223.676 226.826 216.347C226.826 207.559 219.87 204.448 208.152 199.325L201.75 196.576C183.258 188.704 170.997 178.819 170.997 157.951C170.997 138.734 185.644 124.087 208.525 124.087C224.813 124.087 236.53 129.765 244.956 144.593L225.004 157.408C220.616 149.535 215.854 146.425 208.536 146.425C201.026 146.425 196.275 151.187 196.275 157.408C196.275 165.099 201.037 168.209 212.019 172.971L218.421 175.719C240.205 185.05 252.466 194.574 252.466 215.985C252.466 239.047 234.347 251.681 209.995 251.681C186.198 251.681 170.826 240.326 163.316 225.498Z" fill="white"/>
</svg>
