<svg width="274" height="304" viewBox="0 0 274 304" fill="none" xmlns="http://www.w3.org/2000/svg">
<path d="M137.048 303.164C132.808 303.164 128.856 302.051 125.192 300.097L87.6421 278.101C81.9963 275.034 84.8192 273.921 86.5129 273.364C94.1401 270.853 95.5462 270.297 103.45 265.843C104.302 265.286 105.432 265.57 106.273 266.126L135.067 283.112C136.196 283.668 137.613 283.668 138.454 283.112L251.093 218.805C252.222 218.249 252.787 217.135 252.787 215.738V87.4302C252.787 86.0331 252.222 84.9197 251.093 84.3629L138.465 20.3402C137.336 19.7835 135.919 19.7835 135.077 20.3402L22.4386 84.3734C21.3095 84.9302 20.7449 86.3272 20.7449 87.4407V215.77C20.7449 216.883 21.3095 218.28 22.4386 218.837L53.2135 236.379C69.8738 244.73 80.3132 234.982 80.3132 225.244V98.5645C80.3132 96.8944 81.73 95.2242 83.7007 95.2242H98.1028C99.7965 95.2242 101.49 96.6213 101.49 98.5645V225.223C101.49 247.219 89.3465 260.024 68.1801 260.024C61.6821 260.024 56.6009 260.024 42.2095 253.059L12.5638 236.358C5.21365 232.188 0.697021 224.394 0.697021 216.043V87.7138C0.697021 79.363 5.21365 71.5689 12.5532 67.3883L125.192 3.08195C132.254 -0.815079 141.852 -0.815079 148.904 3.08195L261.543 67.3883C268.882 71.5689 273.399 79.363 273.399 87.7138V216.043C273.399 224.394 268.882 232.188 261.543 236.368L148.904 300.675C145.24 302.334 141 303.164 137.048 303.164ZM171.775 214.929C122.369 214.929 112.207 192.661 112.207 173.732C112.207 172.062 113.623 170.392 115.594 170.392H130.273C131.967 170.392 133.384 171.505 133.384 173.175C135.642 187.934 142.14 195.171 172.063 195.171C195.775 195.171 205.937 189.877 205.937 177.356C205.937 170.119 203.114 164.825 166.129 161.211C135.354 158.144 116.159 151.463 116.159 127.251C116.159 104.699 135.354 91.3377 167.535 91.3377C203.668 91.3377 221.458 103.586 223.716 130.308C223.716 131.148 223.428 131.978 222.864 132.819C222.299 133.375 221.447 133.932 220.606 133.932H205.927C204.51 133.932 203.104 132.819 202.816 131.421C199.429 116.106 190.672 111.096 167.525 111.096C141.554 111.096 138.443 120.003 138.443 126.684C138.443 134.762 142.119 137.262 177.122 141.716C211.849 146.169 228.222 152.577 228.222 176.516C227.945 201.001 207.62 214.929 171.775 214.929Z" fill="white"/>
</svg>
