<svg width="238" height="97" viewBox="0 0 238 97" fill="none" xmlns="http://www.w3.org/2000/svg">
<path d="M237.721 80.3287C237.721 83.4714 236.79 86.5434 235.044 89.1565C233.298 91.7695 230.816 93.8061 227.913 95.0088C225.009 96.2114 221.814 96.526 218.732 95.9129C215.65 95.2998 212.819 93.7865 210.596 91.5643C208.374 89.3421 206.861 86.5109 206.248 83.4286C205.635 80.3464 205.949 77.1515 207.152 74.2481C208.355 71.3447 210.391 68.8631 213.004 67.1171C215.617 65.3711 218.689 64.4392 221.832 64.4392C226.046 64.4392 230.088 66.1133 233.067 69.0932C236.047 72.073 237.721 76.1146 237.721 80.3287Z" fill="white"/>
<path d="M190.168 86.3811C197.862 80.368 203.174 71.822 205.16 62.2619C207.147 52.7017 205.679 42.7469 201.019 34.1667C196.358 25.5865 188.806 18.9367 179.705 15.3993C170.604 11.862 160.543 11.6661 151.311 14.8466C142.08 18.0271 134.274 24.3779 129.283 32.7702C124.292 41.1626 122.438 51.0528 124.051 60.6829C125.665 70.3131 130.64 79.0595 138.093 85.3674C145.547 91.6753 154.995 95.1361 164.759 95.1348C173.97 95.1402 182.916 92.0581 190.168 86.3811Z" fill="white"/>
<path d="M82.4377 51.0487V0C77.0235 0.00140415 71.7 1.39112 66.976 4.03639C62.2519 6.68166 58.2851 10.4941 55.4544 15.1095C47.21 12.0919 38.2181 11.7821 29.7855 14.225C21.353 16.668 13.9192 21.7365 8.56461 28.6939C3.21002 35.6512 0.213662 44.1349 0.0110023 52.9118C-0.191657 61.6888 2.40994 70.3017 7.4377 77.4988C12.4655 84.6959 19.6574 90.102 27.9682 92.9316C36.279 95.7612 45.2757 95.8667 53.6506 93.2329C62.0255 90.599 69.3422 85.363 74.5374 78.2859C79.7326 71.2087 82.5356 62.6592 82.5388 53.8799C82.5388 52.9121 82.4955 51.9732 82.4377 51.0487Z" fill="white"/>
<path d="M102.733 31.7933C98.5633 31.7971 94.5658 33.4562 91.6189 36.4058C88.672 39.3555 87.0166 43.3544 87.0166 47.524V95.1925C95.4156 95.1887 103.469 91.8495 109.407 85.9091C115.345 79.9688 118.68 71.9136 118.68 63.5146V47.7406C118.688 45.6443 118.28 43.5671 117.482 41.6288C116.683 39.6906 115.509 37.9295 114.026 36.4472C112.544 34.9648 110.783 33.7904 108.845 32.9917C106.906 32.193 104.829 31.7857 102.733 31.7933Z" fill="white"/>
<path d="M102.848 31.6635C111.592 31.6635 118.68 24.5754 118.68 15.8318C118.68 7.08814 111.592 0 102.848 0C94.1047 0 87.0166 7.08814 87.0166 15.8318C87.0166 24.5754 94.1047 31.6635 102.848 31.6635Z" fill="white"/>
</svg>
