<svg width="26" height="23" viewBox="0 0 26 23" fill="none" xmlns="http://www.w3.org/2000/svg">
<path d="M12.786 7.88194L24.2344 0.618719C23.6943 0.228657 23.0328 0 22.3173 0H3.24127C2.52575 0 1.86423 0.228657 1.32422 0.618719L12.786 7.88194Z" fill="#55569E"/>
<path d="M13.7839 11.1637C13.5679 11.3251 13.3249 11.4193 13.0684 11.4731H13.0549C13.0144 11.4731 12.9739 11.4865 12.9334 11.4865C12.9199 11.4865 12.8929 11.4865 12.8794 11.4865C12.8524 11.4865 12.8254 11.4865 12.7984 11.4865C12.7714 11.4865 12.7444 11.4865 12.7174 11.4865C12.7039 11.4865 12.6769 11.4865 12.6634 11.4865C12.6229 11.4865 12.5824 11.4731 12.5418 11.4731H12.5283C12.2718 11.4327 12.0288 11.3251 11.8128 11.1637L0 3.69873V5.46073V8.76953V9.53621V19.772C0 21.5609 1.44454 23.0001 3.24009 23.0001H22.3161C24.1117 23.0001 25.5562 21.5609 25.5562 19.772V9.53621V8.76953V5.46073V3.69873L13.7839 11.1637Z" fill="#55569E"/>
</svg>
