<svg width="35" height="35" viewBox="0 0 35 35" fill="none" xmlns="http://www.w3.org/2000/svg">
<path d="M17.5 0C7.83708 0 0 7.83563 0 17.5C0 25.2321 5.01375 31.7917 11.9685 34.106C12.8421 34.2679 13.125 33.7254 13.125 33.2646V30.0067C8.25708 31.0654 7.24354 27.9417 7.24354 27.9417C6.44729 25.919 5.29958 25.3808 5.29958 25.3808C3.71146 24.2944 5.42063 24.3177 5.42063 24.3177C7.17792 24.4402 8.1025 26.1217 8.1025 26.1217C9.66292 28.7963 12.196 28.0233 13.195 27.5756C13.351 26.4454 13.8046 25.6725 14.3063 25.2365C10.4198 24.7917 6.33354 23.291 6.33354 16.5871C6.33354 14.6752 7.0175 13.1148 8.13604 11.8898C7.95521 11.4479 7.35583 9.66729 8.30667 7.25813C8.30667 7.25813 9.77667 6.78854 13.1206 9.05188C14.5162 8.66396 16.0125 8.47 17.5 8.46271C18.9875 8.47 20.4852 8.66396 21.8838 9.05188C25.2248 6.78854 26.6919 7.25813 26.6919 7.25813C27.6442 9.66875 27.0448 11.4494 26.864 11.8898C27.9869 13.1148 28.665 14.6767 28.665 16.5871C28.665 23.3085 24.5715 24.7888 20.6748 25.2219C21.3019 25.7644 21.875 26.829 21.875 28.4623V33.2646C21.875 33.7298 22.155 34.2767 23.0431 34.1046C29.9921 31.7873 35 25.2292 35 17.5C35 7.83563 27.1644 0 17.5 0Z" fill="white"/>
</svg>
