<svg width="21" height="24" viewBox="0 0 21 24" fill="none" xmlns="http://www.w3.org/2000/svg">
<path d="M10.2295 13.4504C13.9353 13.4504 16.9394 10.5289 16.9394 6.92513C16.9394 3.32135 13.9353 0.399902 10.2295 0.399902C6.52368 0.399902 3.51953 3.32135 3.51953 6.92513C3.51953 10.5289 6.52368 13.4504 10.2295 13.4504Z" fill="#55569E"/>
<path d="M20.211 20.3969C18.5065 16.7133 14.6645 14.1348 10.2543 14.1348C6.00648 14.1348 2.35389 16.4765 0.514069 19.897C0.189394 20.3179 0 20.8179 0 21.3704C0 22.7386 1.13636 23.8174 2.51623 23.8174H17.8842C19.2911 23.8174 20.4004 22.7123 20.4004 21.3704C20.4004 21.0284 20.3463 20.6863 20.211 20.3969Z" fill="#55569E"/>
</svg>
