<svg width="26" height="23" viewBox="0 0 26 23" fill="none" xmlns="http://www.w3.org/2000/svg">
<g id="Group">
<path id="Vector" d="M12.786 7.88194L24.2344 0.618719C23.6943 0.228657 23.0328 0 22.3173 0H3.24127C2.52575 0 1.86423 0.228657 1.32422 0.618719L12.786 7.88194Z" fill="#55569E"/>
<path id="Vector_2" d="M13.7839 11.1636C13.5679 11.325 13.3249 11.4191 13.0684 11.4729H13.0549C13.0144 11.4729 12.9739 11.4864 12.9334 11.4864C12.9199 11.4864 12.8929 11.4864 12.8794 11.4864C12.8524 11.4864 12.8254 11.4864 12.7984 11.4864C12.7714 11.4864 12.7444 11.4864 12.7174 11.4864C12.7039 11.4864 12.6769 11.4864 12.6634 11.4864C12.6229 11.4864 12.5824 11.4729 12.5418 11.4729H12.5283C12.2718 11.4326 12.0288 11.325 11.8128 11.1636L0 3.69861V5.46061V8.76941V9.53609V19.7718C0 21.5608 1.44454 22.9999 3.24009 22.9999H22.3161C24.1117 22.9999 25.5562 21.5608 25.5562 19.7718V9.53609V8.76941V5.46061V3.69861L13.7839 11.1636Z" fill="#55569E"/>
</g>
</svg>
