<svg width="21" height="24" viewBox="0 0 21 24" fill="none" xmlns="http://www.w3.org/2000/svg">
<g id="Group">
<path id="Vector" d="M10.2295 13.4505C13.9353 13.4505 16.9394 10.529 16.9394 6.92525C16.9394 3.32147 13.9353 0.400024 10.2295 0.400024C6.52368 0.400024 3.51953 3.32147 3.51953 6.92525C3.51953 10.529 6.52368 13.4505 10.2295 13.4505Z" fill="#55569E"/>
<path id="Vector_2" d="M20.211 20.3968C18.5065 16.7132 14.6645 14.1347 10.2543 14.1347C6.00648 14.1347 2.35389 16.4764 0.514069 19.8969C0.189394 20.3179 0 20.8178 0 21.3703C0 22.7385 1.13636 23.8173 2.51623 23.8173H17.8842C19.2911 23.8173 20.4004 22.7122 20.4004 21.3703C20.4004 21.0283 20.3463 20.6862 20.211 20.3968Z" fill="#55569E"/>
</g>
</svg>
