<svg width="238" height="97" viewBox="0 0 238 97" fill="none" xmlns="http://www.w3.org/2000/svg">
<path d="M237.721 80.3285C237.721 83.4711 236.79 86.5432 235.044 89.1562C233.298 91.7692 230.816 93.8059 227.913 95.0085C225.009 96.2111 221.814 96.5258 218.732 95.9127C215.65 95.2996 212.819 93.7863 210.596 91.5641C208.374 89.3419 206.861 86.5106 206.248 83.4284C205.635 80.3461 205.949 77.1513 207.152 74.2479C208.355 71.3444 210.391 68.8628 213.004 67.1169C215.617 65.3709 218.689 64.439 221.832 64.439C226.046 64.439 230.088 66.113 233.067 69.0929C236.047 72.0728 237.721 76.1143 237.721 80.3285Z" fill="white"/>
<path d="M190.168 86.3813C197.862 80.3683 203.173 71.8222 205.16 62.2621C207.147 52.702 205.679 42.7472 201.019 34.167C196.358 25.5867 188.806 18.937 179.705 15.3996C170.604 11.8622 160.543 11.6663 151.311 14.8468C142.08 18.0273 134.274 24.3781 129.283 32.7705C124.292 41.1628 122.438 51.053 124.051 60.6832C125.665 70.3134 130.64 79.0597 138.093 85.3676C145.547 91.6755 154.995 95.1363 164.759 95.135C173.97 95.1404 182.916 92.0584 190.168 86.3813" fill="white"/>
<path d="M82.4377 51.0487V0C77.0235 0.00140415 71.7 1.39112 66.976 4.03639C62.2519 6.68166 58.2851 10.4941 55.4544 15.1095C47.21 12.0919 38.2181 11.7821 29.7855 14.225C21.353 16.668 13.9192 21.7365 8.56461 28.6939C3.21002 35.6512 0.213662 44.1349 0.0110023 52.9118C-0.191657 61.6888 2.40994 70.3017 7.4377 77.4988C12.4655 84.6959 19.6574 90.102 27.9682 92.9316C36.279 95.7612 45.2757 95.8667 53.6506 93.2329C62.0255 90.599 69.3422 85.363 74.5374 78.2859C79.7326 71.2087 82.5356 62.6592 82.5388 53.8799C82.5388 52.9121 82.4955 51.9732 82.4377 51.0487Z" fill="white"/>
<path d="M102.733 31.7931C98.5633 31.7969 94.5658 33.4559 91.6189 36.4056C88.672 39.3552 87.0166 43.3542 87.0166 47.5237V95.1923C95.4156 95.1885 103.469 91.8493 109.407 85.9089C115.345 79.9686 118.68 71.9134 118.68 63.5144V47.7404C118.688 45.644 118.28 43.5668 117.482 41.6286C116.683 39.6903 115.509 37.9293 114.026 36.4469C112.544 34.9646 110.783 33.7902 108.845 32.9915C106.906 32.1927 104.829 31.7854 102.733 31.7931V31.7931Z" fill="white"/>
<path d="M102.848 31.6635C111.592 31.6635 118.68 24.5754 118.68 15.8318C118.68 7.08814 111.592 0 102.848 0C94.1047 0 87.0166 7.08814 87.0166 15.8318C87.0166 24.5754 94.1047 31.6635 102.848 31.6635Z" fill="white"/>
</svg>
