<svg width="341" height="304" viewBox="0 0 341 304" fill="none" xmlns="http://www.w3.org/2000/svg">
<path d="M170.658 181.783C187.449 181.783 201.061 168.171 201.061 151.379C201.061 134.588 187.449 120.976 170.658 120.976C153.867 120.976 140.255 134.588 140.255 151.379C140.255 168.171 153.867 181.783 170.658 181.783Z" fill="white"/>
<path d="M170.671 221.071C127.974 221.071 90.6311 216.022 62.6825 206.477C24.2791 193.349 0.421387 172.24 0.421387 151.376C0.421387 131.276 22.5034 111.576 59.4915 98.6788C89.819 88.106 129.301 82.2817 170.668 82.2817H170.674C211.268 82.2817 250.229 88 280.384 98.3819C318.29 111.43 340.921 131.24 340.921 151.376C340.921 172.273 316.233 193.434 276.487 206.598C248.314 215.928 210.735 221.071 170.671 221.071ZM170.671 96.8273C131.468 96.8273 92.6887 102.509 64.2794 112.412C30.2125 124.291 14.967 140.54 14.967 151.376C14.967 162.655 31.3701 180.404 67.3825 192.71C93.8342 201.749 129.55 206.525 170.671 206.525C209.223 206.525 245.175 201.646 271.911 192.789C309.33 180.392 326.369 162.634 326.369 151.376C326.369 140.885 310.496 124.134 275.642 112.137C246.975 102.264 209.693 96.8273 170.671 96.8273Z" fill="white"/>
<path d="M101.724 303.037C95.5814 303.037 90.0601 301.719 85.3571 299.001C67.9448 288.973 61.9114 260.004 69.2175 221.512C75.2055 189.97 89.8813 152.86 110.548 117.015H110.557C130.833 81.8537 155.248 50.9595 179.306 30.02C209.549 3.70767 238.01 -6.01059 255.455 4.05312C273.561 14.4896 279.561 46.4474 271.11 87.4538C265.131 116.496 250.807 151.615 230.782 186.342C209.455 223.334 186.424 253.155 164.191 272.598C141.588 292.355 119.172 303.037 101.724 303.037ZM123.154 124.281C103.566 158.245 89.1207 194.673 83.5116 224.221C76.7812 259.67 83.2358 280.992 92.6207 286.401C102.406 292.052 125.96 286.707 154.618 261.646C175.664 243.249 197.643 214.694 218.182 179.082C237.452 145.666 251.189 112.081 256.861 84.5234C264.816 45.914 257.943 22.2775 248.192 16.6532C239.101 11.4229 216.667 16.7956 188.855 40.9928C165.979 60.899 142.645 90.478 123.154 124.281Z" fill="white"/>
<path d="M239.719 303.164C223.24 303.164 202.306 293.2 180.518 274.448C156.179 253.506 131.357 222.251 110.627 186.448C90.3024 151.344 75.7296 114.765 69.5962 83.4407C61.8961 44.0919 67.7053 14.5796 85.1296 4.49767C103.209 -5.97211 133.897 4.79161 165.2 32.5918C187.391 52.295 210.664 82.2407 230.734 116.914C252.131 153.856 266.47 188.702 272.207 217.678C280.095 257.491 273.77 288.715 255.716 299.167C251.085 301.848 245.694 303.164 239.719 303.164ZM123.215 179.166C142.857 213.09 167.203 243.803 190.003 263.424C217.352 286.96 239.052 292.036 248.431 286.579C258.192 280.93 265.331 257.839 257.937 220.502C252.507 193.075 238.749 159.778 218.152 124.202C198.837 90.8377 176.6 62.1648 155.542 43.4646C126.072 17.2947 102.154 11.4371 92.4176 17.0856C83.3387 22.3372 76.7932 44.4707 83.872 80.6467C89.7024 110.429 103.675 145.414 123.215 179.166Z" fill="white"/>
</svg>
